# Blender v2.79 (sub 0) OBJ File: 'bank.blend'
# www.blender.org
mtllib bank.mtl
o Cylinder
v 2.718874 0.085154 1.394053
v 2.718874 3.981328 1.394053
v 2.790410 0.085154 1.401098
v 2.790410 3.981328 1.401098
v 2.859196 0.085154 1.421964
v 2.859196 3.981328 1.421964
v 2.922589 0.085154 1.455849
v 2.922589 3.981328 1.455849
v 2.978154 0.085154 1.501450
v 2.978154 3.981328 1.501450
v 3.023755 0.085154 1.557015
v 3.023755 3.981328 1.557015
v 3.057640 0.085154 1.620409
v 3.057640 3.981328 1.620409
v 3.078506 0.085154 1.689195
v 3.078506 3.981328 1.689195
v 3.085552 0.085154 1.760730
v 3.085552 3.981328 1.760730
v 3.078506 0.085154 1.832265
v 3.078506 3.981328 1.832265
v 3.057640 0.085154 1.901051
v 3.057640 3.981328 1.901051
v 3.023755 0.085154 1.964445
v 3.023755 3.981328 1.964445
v 2.978154 0.085154 2.020010
v 2.978154 3.981328 2.020010
v 2.922589 0.085154 2.065611
v 2.922589 3.981328 2.065611
v 2.859196 0.085154 2.099495
v 2.859196 3.981328 2.099495
v 2.790410 0.085154 2.120361
v 2.790410 3.981328 2.120361
v 2.718874 0.085154 2.127407
v 2.718874 3.981328 2.127407
v 2.647339 0.085154 2.120361
v 2.647339 3.981328 2.120361
v 2.578553 0.085154 2.099495
v 2.578553 3.981328 2.099495
v 2.515159 0.085154 2.065610
v 2.515159 3.981328 2.065610
v 2.459594 0.085154 2.020010
v 2.459594 3.981328 2.020010
v 2.413993 0.085154 1.964444
v 2.413993 3.981328 1.964444
v 2.380109 0.085154 1.901051
v 2.380109 3.981328 1.901051
v 2.359243 0.085154 1.832265
v 2.359243 3.981328 1.832265
v 2.352197 0.085154 1.760729
v 2.352197 3.981328 1.760729
v 2.359243 0.085154 1.689194
v 2.359243 3.981328 1.689194
v 2.380109 0.085154 1.620408
v 2.380109 3.981328 1.620408
v 2.413994 0.085154 1.557015
v 2.413994 3.981328 1.557015
v 2.459595 0.085154 1.501450
v 2.459595 3.981328 1.501450
v 2.515160 0.085154 1.455849
v 2.515160 3.981328 1.455849
v 2.578554 0.085154 1.421964
v 2.578554 3.981328 1.421964
v 2.647340 0.085154 1.401098
v 2.647340 3.981328 1.401098
vn 0.0980 0.0000 -0.9952
vn 0.2903 0.0000 -0.9569
vn 0.4714 0.0000 -0.8819
vn 0.6344 0.0000 -0.7730
vn 0.7730 0.0000 -0.6344
vn 0.8819 0.0000 -0.4714
vn 0.9569 0.0000 -0.2903
vn 0.9952 0.0000 -0.0980
vn 0.9952 0.0000 0.0980
vn 0.9569 0.0000 0.2903
vn 0.8819 0.0000 0.4714
vn 0.7730 0.0000 0.6344
vn 0.6344 0.0000 0.7730
vn 0.4714 0.0000 0.8819
vn 0.2903 0.0000 0.9569
vn 0.0980 0.0000 0.9952
vn -0.0980 0.0000 0.9952
vn -0.2903 0.0000 0.9569
vn -0.4714 0.0000 0.8819
vn -0.6344 0.0000 0.7730
vn -0.7730 0.0000 0.6344
vn -0.8819 0.0000 0.4714
vn -0.9569 0.0000 0.2903
vn -0.9952 0.0000 0.0980
vn -0.9952 0.0000 -0.0980
vn -0.9569 0.0000 -0.2903
vn -0.8819 0.0000 -0.4714
vn -0.7730 0.0000 -0.6344
vn -0.6344 0.0000 -0.7730
vn -0.4714 0.0000 -0.8819
vn 0.0000 1.0000 0.0000
vn -0.2903 0.0000 -0.9569
vn -0.0980 0.0000 -0.9952
vn 0.0000 -1.0000 -0.0000
usemtl None
s off
f 1//1 2//1 4//1 3//1
f 3//2 4//2 6//2 5//2
f 5//3 6//3 8//3 7//3
f 7//4 8//4 10//4 9//4
f 9//5 10//5 12//5 11//5
f 11//6 12//6 14//6 13//6
f 13//7 14//7 16//7 15//7
f 15//8 16//8 18//8 17//8
f 17//9 18//9 20//9 19//9
f 19//10 20//10 22//10 21//10
f 21//11 22//11 24//11 23//11
f 23//12 24//12 26//12 25//12
f 25//13 26//13 28//13 27//13
f 27//14 28//14 30//14 29//14
f 29//15 30//15 32//15 31//15
f 31//16 32//16 34//16 33//16
f 33//17 34//17 36//17 35//17
f 35//18 36//18 38//18 37//18
f 37//19 38//19 40//19 39//19
f 39//20 40//20 42//20 41//20
f 41//21 42//21 44//21 43//21
f 43//22 44//22 46//22 45//22
f 45//23 46//23 48//23 47//23
f 47//24 48//24 50//24 49//24
f 49//25 50//25 52//25 51//25
f 51//26 52//26 54//26 53//26
f 53//27 54//27 56//27 55//27
f 55//28 56//28 58//28 57//28
f 57//29 58//29 60//29 59//29
f 59//30 60//30 62//30 61//30
f 4//31 2//31 64//31 62//31 60//31 58//31 56//31 54//31 52//31 50//31 48//31 46//31 44//31 42//31 40//31 38//31 36//31 34//31 32//31 30//31 28//31 26//31 24//31 22//31 20//31 18//31 16//31 14//31 12//31 10//31 8//31 6//31
f 61//32 62//32 64//32 63//32
f 63//33 64//33 2//33 1//33
f 1//34 3//34 5//34 7//34 9//34 11//34 13//34 15//34 17//34 19//34 21//34 23//34 25//34 27//34 29//34 31//34 33//34 35//34 37//34 39//34 41//34 43//34 45//34 47//34 49//34 51//34 53//34 55//34 57//34 59//34 61//34 63//34
o Cube.001_Cube.002
v 0.999354 0.099458 -0.248185
v 0.999354 2.099458 -0.248185
v 0.999354 0.099458 -1.254155
v 0.999354 2.099458 -1.254155
v 2.999354 0.099458 -0.248185
v 2.999354 2.099458 -0.248185
v 2.999354 0.099458 -1.254155
v 2.999354 2.099458 -1.254155
vn -1.0000 0.0000 0.0000
vn 0.0000 0.0000 -1.0000
vn 1.0000 0.0000 0.0000
vn 0.0000 0.0000 1.0000
vn 0.0000 -1.0000 0.0000
vn 0.0000 1.0000 0.0000
usemtl None
s off
f 65//35 66//35 68//35 67//35
f 67//36 68//36 72//36 71//36
f 71//37 72//37 70//37 69//37
f 69//38 70//38 66//38 65//38
f 67//39 71//39 69//39 65//39
f 72//40 68//40 66//40 70//40
o Cube
v 2.888190 0.071995 -3.925160
v 2.888190 0.071995 2.604254
v -3.011825 0.071995 2.604253
v -3.011824 0.071995 -3.925161
v 2.888191 3.983952 -3.925159
v 2.888189 3.983952 2.604255
v -3.011826 3.983952 2.604253
v -3.011825 3.983952 -3.925160
v -2.991866 5.851231 -0.792137
v -2.991866 3.988326 -4.199699
v -2.991866 5.851231 -0.774211
v -2.991866 3.988326 2.821614
v 3.073886 3.988326 2.821614
v 3.073886 5.851231 -0.774211
v 3.073886 3.988326 -4.199699
v 3.073886 5.851231 -0.792137
vn 0.0000 -1.0000 -0.0000
vn 0.0000 1.0000 0.0000
vn 1.0000 0.0000 0.0000
vn -0.0000 -0.0000 1.0000
vn -1.0000 -0.0000 -0.0000
vn 0.0000 0.0000 -1.0000
vn 0.0000 0.8774 -0.4797
vn 0.0000 0.8879 0.4600
usemtl Material
s off
f 73//41 74//41 75//41 76//41
f 77//42 80//42 79//42 78//42
f 73//43 77//43 78//43 74//43
f 74//44 78//44 79//44 75//44
f 75//45 79//45 80//45 76//45
f 77//46 73//46 76//46 80//46
f 84//45 83//45 81//45 82//45
f 82//47 81//47 88//47 87//47
f 87//43 88//43 86//43 85//43
f 85//48 86//48 83//48 84//48
f 82//41 87//41 85//41 84//41
f 88//42 81//42 83//42 86//42
o Cylinder.001
v 2.718874 0.085154 0.128925
v 2.718874 3.981328 0.128925
v 2.790410 0.085154 0.135970
v 2.790410 3.981328 0.135970
v 2.859196 0.085154 0.156836
v 2.859196 3.981328 0.156836
v 2.922589 0.085154 0.190721
v 2.922589 3.981328 0.190721
v 2.978154 0.085154 0.236322
v 2.978154 3.981328 0.236322
v 3.023755 0.085154 0.291887
v 3.023755 3.981328 0.291887
v 3.057640 0.085154 0.355281
v 3.057640 3.981328 0.355281
v 3.078506 0.085154 0.424067
v 3.078506 3.981328 0.424067
v 3.085552 0.085154 0.495602
v 3.085552 3.981328 0.495602
v 3.078506 0.085154 0.567137
v 3.078506 3.981328 0.567137
v 3.057640 0.085154 0.635923
v 3.057640 3.981328 0.635923
v 3.023755 0.085154 0.699317
v 3.023755 3.981328 0.699317
v 2.978154 0.085154 0.754882
v 2.978154 3.981328 0.754882
v 2.922589 0.085154 0.800483
v 2.922589 3.981328 0.800483
v 2.859196 0.085154 0.834367
v 2.859196 3.981328 0.834367
v 2.790410 0.085154 0.855233
v 2.790410 3.981328 0.855233
v 2.718874 0.085154 0.862279
v 2.718874 3.981328 0.862279
v 2.647339 0.085154 0.855233
v 2.647339 3.981328 0.855233
v 2.578553 0.085154 0.834367
v 2.578553 3.981328 0.834367
v 2.515159 0.085154 0.800483
v 2.515159 3.981328 0.800483
v 2.459594 0.085154 0.754881
v 2.459594 3.981328 0.754881
v 2.413993 0.085154 0.699316
v 2.413993 3.981328 0.699316
v 2.380109 0.085154 0.635923
v 2.380109 3.981328 0.635923
v 2.359243 0.085154 0.567137
v 2.359243 3.981328 0.567137
v 2.352197 0.085154 0.495601
v 2.352197 3.981328 0.495601
v 2.359243 0.085154 0.424066
v 2.359243 3.981328 0.424066
v 2.380109 0.085154 0.355280
v 2.380109 3.981328 0.355280
v 2.413994 0.085154 0.291887
v 2.413994 3.981328 0.291887
v 2.459595 0.085154 0.236322
v 2.459595 3.981328 0.236322
v 2.515160 0.085154 0.190721
v 2.515160 3.981328 0.190721
v 2.578554 0.085154 0.156836
v 2.578554 3.981328 0.156836
v 2.647340 0.085154 0.135970
v 2.647340 3.981328 0.135970
vn 0.0980 0.0000 -0.9952
vn 0.2903 0.0000 -0.9569
vn 0.4714 0.0000 -0.8819
vn 0.6344 0.0000 -0.7730
vn 0.7730 0.0000 -0.6344
vn 0.8819 0.0000 -0.4714
vn 0.9569 0.0000 -0.2903
vn 0.9952 0.0000 -0.0980
vn 0.9952 0.0000 0.0980
vn 0.9569 0.0000 0.2903
vn 0.8819 0.0000 0.4714
vn 0.7730 0.0000 0.6344
vn 0.6344 0.0000 0.7730
vn 0.4714 0.0000 0.8819
vn 0.2903 0.0000 0.9569
vn 0.0980 0.0000 0.9952
vn -0.0980 0.0000 0.9952
vn -0.2903 0.0000 0.9569
vn -0.4714 0.0000 0.8819
vn -0.6344 0.0000 0.7730
vn -0.7730 0.0000 0.6344
vn -0.8819 0.0000 0.4714
vn -0.9569 0.0000 0.2903
vn -0.9952 0.0000 0.0980
vn -0.9952 0.0000 -0.0980
vn -0.9569 0.0000 -0.2903
vn -0.8819 0.0000 -0.4714
vn -0.7730 0.0000 -0.6344
vn -0.6344 0.0000 -0.7730
vn -0.4714 0.0000 -0.8819
vn 0.0000 1.0000 0.0000
vn -0.2903 0.0000 -0.9569
vn -0.0980 0.0000 -0.9952
vn 0.0000 -1.0000 -0.0000
usemtl None
s off
f 89//49 90//49 92//49 91//49
f 91//50 92//50 94//50 93//50
f 93//51 94//51 96//51 95//51
f 95//52 96//52 98//52 97//52
f 97//53 98//53 100//53 99//53
f 99//54 100//54 102//54 101//54
f 101//55 102//55 104//55 103//55
f 103//56 104//56 106//56 105//56
f 105//57 106//57 108//57 107//57
f 107//58 108//58 110//58 109//58
f 109//59 110//59 112//59 111//59
f 111//60 112//60 114//60 113//60
f 113//61 114//61 116//61 115//61
f 115//62 116//62 118//62 117//62
f 117//63 118//63 120//63 119//63
f 119//64 120//64 122//64 121//64
f 121//65 122//65 124//65 123//65
f 123//66 124//66 126//66 125//66
f 125//67 126//67 128//67 127//67
f 127//68 128//68 130//68 129//68
f 129//69 130//69 132//69 131//69
f 131//70 132//70 134//70 133//70
f 133//71 134//71 136//71 135//71
f 135//72 136//72 138//72 137//72
f 137//73 138//73 140//73 139//73
f 139//74 140//74 142//74 141//74
f 141//75 142//75 144//75 143//75
f 143//76 144//76 146//76 145//76
f 145//77 146//77 148//77 147//77
f 147//78 148//78 150//78 149//78
f 92//79 90//79 152//79 150//79 148//79 146//79 144//79 142//79 140//79 138//79 136//79 134//79 132//79 130//79 128//79 126//79 124//79 122//79 120//79 118//79 116//79 114//79 112//79 110//79 108//79 106//79 104//79 102//79 100//79 98//79 96//79 94//79
f 149//80 150//80 152//80 151//80
f 151//81 152//81 90//81 89//81
f 89//82 91//82 93//82 95//82 97//82 99//82 101//82 103//82 105//82 107//82 109//82 111//82 113//82 115//82 117//82 119//82 121//82 123//82 125//82 127//82 129//82 131//82 133//82 135//82 137//82 139//82 141//82 143//82 145//82 147//82 149//82 151//82
o Cylinder.002
v 2.718874 0.085154 -2.378740
v 2.718874 3.981328 -2.378740
v 2.790410 0.085154 -2.371695
v 2.790410 3.981328 -2.371695
v 2.859196 0.085154 -2.350828
v 2.859196 3.981328 -2.350828
v 2.922589 0.085154 -2.316944
v 2.922589 3.981328 -2.316944
v 2.978154 0.085154 -2.271343
v 2.978154 3.981328 -2.271343
v 3.023755 0.085154 -2.215778
v 3.023755 3.981328 -2.215778
v 3.057640 0.085154 -2.152384
v 3.057640 3.981328 -2.152384
v 3.078506 0.085154 -2.083598
v 3.078506 3.981328 -2.083598
v 3.085552 0.085154 -2.012063
v 3.085552 3.981328 -2.012063
v 3.078506 0.085154 -1.940528
v 3.078506 3.981328 -1.940528
v 3.057640 0.085154 -1.871742
v 3.057640 3.981328 -1.871742
v 3.023755 0.085154 -1.808348
v 3.023755 3.981328 -1.808348
v 2.978154 0.085154 -1.752783
v 2.978154 3.981328 -1.752783
v 2.922589 0.085154 -1.707182
v 2.922589 3.981328 -1.707182
v 2.859196 0.085154 -1.673298
v 2.859196 3.981328 -1.673298
v 2.790410 0.085154 -1.652432
v 2.790410 3.981328 -1.652432
v 2.718874 0.085154 -1.645386
v 2.718874 3.981328 -1.645386
v 2.647339 0.085154 -1.652432
v 2.647339 3.981328 -1.652432
v 2.578553 0.085154 -1.673298
v 2.578553 3.981328 -1.673298
v 2.515159 0.085154 -1.707182
v 2.515159 3.981328 -1.707182
v 2.459594 0.085154 -1.752783
v 2.459594 3.981328 -1.752783
v 2.413993 0.085154 -1.808348
v 2.413993 3.981328 -1.808348
v 2.380109 0.085154 -1.871742
v 2.380109 3.981328 -1.871742
v 2.359243 0.085154 -1.940528
v 2.359243 3.981328 -1.940528
v 2.352197 0.085154 -2.012063
v 2.352197 3.981328 -2.012063
v 2.359243 0.085154 -2.083599
v 2.359243 3.981328 -2.083599
v 2.380109 0.085154 -2.152385
v 2.380109 3.981328 -2.152385
v 2.413994 0.085154 -2.215778
v 2.413994 3.981328 -2.215778
v 2.459595 0.085154 -2.271343
v 2.459595 3.981328 -2.271343
v 2.515160 0.085154 -2.316944
v 2.515160 3.981328 -2.316944
v 2.578554 0.085154 -2.350829
v 2.578554 3.981328 -2.350829
v 2.647340 0.085154 -2.371695
v 2.647340 3.981328 -2.371695
vn 0.0980 0.0000 -0.9952
vn 0.2903 0.0000 -0.9569
vn 0.4714 0.0000 -0.8819
vn 0.6344 0.0000 -0.7730
vn 0.7730 0.0000 -0.6344
vn 0.8819 0.0000 -0.4714
vn 0.9569 0.0000 -0.2903
vn 0.9952 0.0000 -0.0980
vn 0.9952 0.0000 0.0980
vn 0.9569 0.0000 0.2903
vn 0.8819 0.0000 0.4714
vn 0.7730 0.0000 0.6344
vn 0.6344 0.0000 0.7730
vn 0.4714 0.0000 0.8819
vn 0.2903 0.0000 0.9569
vn 0.0980 0.0000 0.9952
vn -0.0980 0.0000 0.9952
vn -0.2903 0.0000 0.9569
vn -0.4714 0.0000 0.8819
vn -0.6344 0.0000 0.7730
vn -0.7730 0.0000 0.6344
vn -0.8819 0.0000 0.4714
vn -0.9569 0.0000 0.2903
vn -0.9952 0.0000 0.0980
vn -0.9952 0.0000 -0.0980
vn -0.9569 0.0000 -0.2903
vn -0.8819 0.0000 -0.4714
vn -0.7730 0.0000 -0.6344
vn -0.6344 0.0000 -0.7730
vn -0.4714 0.0000 -0.8819
vn 0.0000 1.0000 0.0000
vn -0.2903 0.0000 -0.9569
vn -0.0980 0.0000 -0.9952
vn 0.0000 -1.0000 -0.0000
usemtl None
s off
f 153//83 154//83 156//83 155//83
f 155//84 156//84 158//84 157//84
f 157//85 158//85 160//85 159//85
f 159//86 160//86 162//86 161//86
f 161//87 162//87 164//87 163//87
f 163//88 164//88 166//88 165//88
f 165//89 166//89 168//89 167//89
f 167//90 168//90 170//90 169//90
f 169//91 170//91 172//91 171//91
f 171//92 172//92 174//92 173//92
f 173//93 174//93 176//93 175//93
f 175//94 176//94 178//94 177//94
f 177//95 178//95 180//95 179//95
f 179//96 180//96 182//96 181//96
f 181//97 182//97 184//97 183//97
f 183//98 184//98 186//98 185//98
f 185//99 186//99 188//99 187//99
f 187//100 188//100 190//100 189//100
f 189//101 190//101 192//101 191//101
f 191//102 192//102 194//102 193//102
f 193//103 194//103 196//103 195//103
f 195//104 196//104 198//104 197//104
f 197//105 198//105 200//105 199//105
f 199//106 200//106 202//106 201//106
f 201//107 202//107 204//107 203//107
f 203//108 204//108 206//108 205//108
f 205//109 206//109 208//109 207//109
f 207//110 208//110 210//110 209//110
f 209//111 210//111 212//111 211//111
f 211//112 212//112 214//112 213//112
f 156//113 154//113 216//113 214//113 212//113 210//113 208//113 206//113 204//113 202//113 200//113 198//113 196//113 194//113 192//113 190//113 188//113 186//113 184//113 182//113 180//113 178//113 176//113 174//113 172//113 170//113 168//113 166//113 164//113 162//113 160//113 158//113
f 213//114 214//114 216//114 215//114
f 215//115 216//115 154//115 153//115
f 153//116 155//116 157//116 159//116 161//116 163//116 165//116 167//116 169//116 171//116 173//116 175//116 177//116 179//116 181//116 183//116 185//116 187//116 189//116 191//116 193//116 195//116 197//116 199//116 201//116 203//116 205//116 207//116 209//116 211//116 213//116 215//116
o Cylinder.003
v 2.718874 0.085154 -3.576093
v 2.718874 3.981328 -3.576093
v 2.790410 0.085154 -3.569048
v 2.790410 3.981328 -3.569048
v 2.859196 0.085154 -3.548182
v 2.859196 3.981328 -3.548182
v 2.922589 0.085154 -3.514297
v 2.922589 3.981328 -3.514297
v 2.978154 0.085154 -3.468696
v 2.978154 3.981328 -3.468696
v 3.023755 0.085154 -3.413131
v 3.023755 3.981328 -3.413131
v 3.057640 0.085154 -3.349738
v 3.057640 3.981328 -3.349738
v 3.078506 0.085154 -3.280951
v 3.078506 3.981328 -3.280951
v 3.085552 0.085154 -3.209416
v 3.085552 3.981328 -3.209416
v 3.078506 0.085154 -3.137881
v 3.078506 3.981328 -3.137881
v 3.057640 0.085154 -3.069095
v 3.057640 3.981328 -3.069095
v 3.023755 0.085154 -3.005702
v 3.023755 3.981328 -3.005702
v 2.978154 0.085154 -2.950137
v 2.978154 3.981328 -2.950137
v 2.922589 0.085154 -2.904536
v 2.922589 3.981328 -2.904536
v 2.859196 0.085154 -2.870651
v 2.859196 3.981328 -2.870651
v 2.790410 0.085154 -2.849785
v 2.790410 3.981328 -2.849785
v 2.718874 0.085154 -2.842739
v 2.718874 3.981328 -2.842739
v 2.647339 0.085154 -2.849785
v 2.647339 3.981328 -2.849785
v 2.578553 0.085154 -2.870651
v 2.578553 3.981328 -2.870651
v 2.515159 0.085154 -2.904536
v 2.515159 3.981328 -2.904536
v 2.459594 0.085154 -2.950137
v 2.459594 3.981328 -2.950137
v 2.413993 0.085154 -3.005702
v 2.413993 3.981328 -3.005702
v 2.380109 0.085154 -3.069095
v 2.380109 3.981328 -3.069095
v 2.359243 0.085154 -3.137882
v 2.359243 3.981328 -3.137882
v 2.352197 0.085154 -3.209417
v 2.352197 3.981328 -3.209417
v 2.359243 0.085154 -3.280952
v 2.359243 3.981328 -3.280952
v 2.380109 0.085154 -3.349738
v 2.380109 3.981328 -3.349738
v 2.413994 0.085154 -3.413132
v 2.413994 3.981328 -3.413132
v 2.459595 0.085154 -3.468697
v 2.459595 3.981328 -3.468697
v 2.515160 0.085154 -3.514297
v 2.515160 3.981328 -3.514297
v 2.578554 0.085154 -3.548182
v 2.578554 3.981328 -3.548182
v 2.647340 0.085154 -3.569048
v 2.647340 3.981328 -3.569048
vn 0.0980 0.0000 -0.9952
vn 0.2903 0.0000 -0.9569
vn 0.4714 0.0000 -0.8819
vn 0.6344 0.0000 -0.7730
vn 0.7730 0.0000 -0.6344
vn 0.8819 0.0000 -0.4714
vn 0.9569 0.0000 -0.2903
vn 0.9952 0.0000 -0.0980
vn 0.9952 0.0000 0.0980
vn 0.9569 0.0000 0.2903
vn 0.8819 0.0000 0.4714
vn 0.7730 0.0000 0.6344
vn 0.6344 0.0000 0.7730
vn 0.4714 0.0000 0.8819
vn 0.2903 0.0000 0.9569
vn 0.0980 0.0000 0.9952
vn -0.0980 0.0000 0.9952
vn -0.2903 0.0000 0.9569
vn -0.4714 0.0000 0.8819
vn -0.6344 0.0000 0.7730
vn -0.7730 0.0000 0.6344
vn -0.8819 0.0000 0.4714
vn -0.9569 0.0000 0.2903
vn -0.9952 0.0000 0.0980
vn -0.9952 0.0000 -0.0980
vn -0.9569 0.0000 -0.2903
vn -0.8819 0.0000 -0.4714
vn -0.7730 0.0000 -0.6344
vn -0.6344 0.0000 -0.7730
vn -0.4714 0.0000 -0.8819
vn 0.0000 1.0000 0.0000
vn -0.2903 0.0000 -0.9569
vn -0.0980 0.0000 -0.9952
vn 0.0000 -1.0000 -0.0000
usemtl None
s off
f 217//117 218//117 220//117 219//117
f 219//118 220//118 222//118 221//118
f 221//119 222//119 224//119 223//119
f 223//120 224//120 226//120 225//120
f 225//121 226//121 228//121 227//121
f 227//122 228//122 230//122 229//122
f 229//123 230//123 232//123 231//123
f 231//124 232//124 234//124 233//124
f 233//125 234//125 236//125 235//125
f 235//126 236//126 238//126 237//126
f 237//127 238//127 240//127 239//127
f 239//128 240//128 242//128 241//128
f 241//129 242//129 244//129 243//129
f 243//130 244//130 246//130 245//130
f 245//131 246//131 248//131 247//131
f 247//132 248//132 250//132 249//132
f 249//133 250//133 252//133 251//133
f 251//134 252//134 254//134 253//134
f 253//135 254//135 256//135 255//135
f 255//136 256//136 258//136 257//136
f 257//137 258//137 260//137 259//137
f 259//138 260//138 262//138 261//138
f 261//139 262//139 264//139 263//139
f 263//140 264//140 266//140 265//140
f 265//141 266//141 268//141 267//141
f 267//142 268//142 270//142 269//142
f 269//143 270//143 272//143 271//143
f 271//144 272//144 274//144 273//144
f 273//145 274//145 276//145 275//145
f 275//146 276//146 278//146 277//146
f 220//147 218//147 280//147 278//147 276//147 274//147 272//147 270//147 268//147 266//147 264//147 262//147 260//147 258//147 256//147 254//147 252//147 250//147 248//147 246//147 244//147 242//147 240//147 238//147 236//147 234//147 232//147 230//147 228//147 226//147 224//147 222//147
f 277//148 278//148 280//148 279//148
f 279//149 280//149 218//149 217//149
f 217//150 219//150 221//150 223//150 225//150 227//150 229//150 231//150 233//150 235//150 237//150 239//150 241//150 243//150 245//150 247//150 249//150 251//150 253//150 255//150 257//150 259//150 261//150 263//150 265//150 267//150 269//150 271//150 273//150 275//150 277//150 279//150
