# Blender v2.79 (sub 0) OBJ File: 'basket.blend'
# www.blender.org
mtllib basket.mtl
o Cube_Cube.001
v -1.000000 0.097127 1.000000
v -1.472835 2.097127 1.472835
v -1.000000 0.097127 -1.000000
v -1.472835 2.097127 -1.472835
v 1.000000 0.097127 1.000000
v 1.472835 2.097127 1.472835
v 1.000000 0.097127 -1.000000
v 1.472835 2.097127 -1.472835
v -0.280850 2.097127 1.442376
v 0.309491 2.092751 1.450950
v -0.186106 2.097127 -1.472835
v 0.398164 2.097127 -1.472835
v -0.232262 3.225235 -0.015230
v 0.379807 3.211272 -0.010943
v 0.388378 2.769197 -1.229495
v -0.209792 2.776179 -1.231638
v -0.257164 2.830506 1.145154
v 0.368806 2.809561 1.151584
v -0.245321 3.142869 0.705783
v 0.373699 3.125414 0.711142
v 0.383485 3.105232 -0.787162
v -0.221635 3.115705 -0.790377
vn -0.9732 -0.2301 0.0000
vn 0.0000 -0.2301 -0.9732
vn 0.9732 -0.2301 0.0000
vn 0.0000 -0.2216 0.9751
vn 0.0000 -1.0000 0.0000
vn -0.0035 0.3806 0.9247
vn 0.0196 0.8135 0.5812
vn 0.0244 0.9929 0.1161
vn 0.0207 0.9903 -0.1374
vn 0.0142 0.7945 -0.6071
vn 0.0037 0.3376 -0.9413
vn 0.0000 1.0000 0.0000
usemtl None
s off
f 1//1 2//1 4//1 3//1
f 3//2 4//2 11//2 12//2 8//2 7//2
f 7//3 8//3 6//3 5//3
f 5//4 6//4 10//4 9//4 2//4 1//4
f 3//5 7//5 5//5 1//5
f 17//6 9//6 10//6 18//6
f 19//7 17//7 18//7 20//7
f 20//8 14//8 13//8 19//8
f 22//9 13//9 14//9 21//9
f 21//10 15//10 16//10 22//10
f 15//11 12//11 11//11 16//11
f 2//12 6//12 8//12 4//12
