# Exported from ProBuilder
# http://www.procore3d.com/probuilder
# 4/12/2019 11:37:24 AM

mtllib ./Animal.mtl
o Animal

g Cube
v -0.009000008 1.218678 -0.6687757
v -0.08582792 1.218678 -0.7193604
v -0.1626558 1.218678 -0.769945
v -0.009000048 1.008807 -0.7473777
v 0.1446557 1.218678 -0.7699451
v 0.06782785 1.218678 -0.7193605
v -0.009000008 1.218678 -0.6687757
v -0.008999784 1.218678 -0.2262971
v -0.1674757 1.218678 -0.3552605
v -0.08582792 1.218678 -0.7193604
v -0.2394837 1.218678 -0.769945
v -0.1626558 1.218678 -0.769945
v -0.08582792 1.218678 -0.7193604
v -0.1674757 1.218678 -0.3552605
v -0.008999784 1.218678 -0.2262971
v -0.009000008 1.218678 -0.6687757
v 0.06782785 1.218678 -0.7193605
v 0.149476 1.218678 -0.3552606
v 0.06782785 1.218678 -0.7193605
v 0.1446557 1.218678 -0.7699451
v 0.2214836 1.218678 -0.7699452
v 0.149476 1.218678 -0.3552606
v -0.3702443 0.9563391 -0.7473775
v -0.3702443 0.8251696 -0.7473775
v -0.3702443 0.694 -0.7473775
v -0.009000048 0.694 -0.7473777
v -0.009000048 1.008807 -0.7473777
v -0.009000048 0.694 -0.7473777
v 0.3522442 0.694 -0.7473779
v 0.3522442 0.8251696 -0.7473779
v 0.3522442 0.9563391 -0.7473779
v -0.009000048 1.008807 -0.7473777
v -0.2394837 1.218678 -0.769945
v -0.3163116 1.218678 -0.7473776
v -0.3432779 1.087509 -0.7473775
v -0.3702443 0.9563391 -0.7473775
v -0.009000048 1.008807 -0.7473777
v -0.1626558 1.218678 -0.769945
v 0.1446557 1.218678 -0.7699451
v -0.009000048 1.008807 -0.7473777
v 0.3522442 0.9563391 -0.7473779
v 0.3252778 1.087509 -0.7473779
v 0.2983115 1.218678 -0.7473779
v 0.2214836 1.218678 -0.7699452
v 0.310362 1.218678 -0.3166575
v 0.3043367 1.218678 -0.5320176
v 0.2945718 1.031293 0.1197131
v 0.3163873 1.218678 -0.1012973
v 0.3043367 1.218678 -0.5320176
v 0.2983115 1.218678 -0.7473779
v 0.3252778 1.087509 -0.7473779
v 0.2945718 1.031293 0.1197131
v 0.3252778 1.087509 -0.7473779
v 0.3522442 0.9563391 -0.7473779
v 0.3522442 0.8251696 -0.7473779
v 0.2945718 1.031293 0.1197131
v 0.3522442 0.8251696 -0.7473779
v 0.3522442 0.694 -0.7473779
v 0.311197 0.694 0.06987423
v 0.2945718 1.031293 0.1197131
v -0.3291963 0.694 0.06987455
v -0.3702443 0.694 -0.7473775
v -0.3702443 0.8251696 -0.7473775
v -0.312571 1.031293 0.1197134
v -0.3702443 0.8251696 -0.7473775
v -0.3702443 0.9563391 -0.7473775
v -0.3432779 1.087509 -0.7473775
v -0.312571 1.031293 0.1197134
v -0.3432779 1.087509 -0.7473775
v -0.3163116 1.218678 -0.7473776
v -0.3223366 1.218678 -0.5320174
v -0.312571 1.031293 0.1197134
v -0.3223366 1.218678 -0.5320174
v -0.3283617 1.218678 -0.3166571
v -0.3343867 1.218678 -0.1012969
v -0.312571 1.031293 0.1197134
v -0.3163116 1.218678 -0.7473776
v -0.2394837 1.218678 -0.769945
v -0.1674757 1.218678 -0.3552605
v -0.3283617 1.218678 -0.3166571
v -0.3223366 1.218678 -0.5320174
v 0.2983115 1.218678 -0.7473779
v 0.3043367 1.218678 -0.5320176
v 0.310362 1.218678 -0.3166575
v 0.149476 1.218678 -0.3552606
v 0.2214836 1.218678 -0.7699452
v 0.2559519 1.087509 0.7957571
v 0.2559519 0.9563391 0.7957571
v 0.2630509 0.9315593 0.8414416
v -0.008999094 1.205722 1.13459
v 0.2630509 0.9315593 0.8414416
v 0.2701498 0.8003898 0.8871263
v -0.00899922 0.8003898 0.8871265
v -0.008999094 1.205722 1.13459
v -0.00899922 0.8003898 0.8871265
v -0.2881483 0.8003898 0.8871266
v -0.2810493 0.9315593 0.8414419
v -0.008999094 1.205722 1.13459
v -0.2810493 0.9315593 0.8414419
v -0.2739504 0.9563391 0.7957574
v -0.2739504 1.087509 0.7957574
v -0.008999094 1.205722 1.13459
v -0.3702443 0.694 -0.7473775
v -0.3291963 0.694 0.06987455
v -0.2881483 0.8003898 0.8871266
v -0.00899922 0.8003898 0.8871265
v 0.2701498 0.8003898 0.8871263
v 0.311197 0.694 0.06987423
v 0.3522442 0.694 -0.7473779
v -0.009000048 0.694 -0.7473777
v 0.311197 0.694 0.06987423
v 0.2701498 0.8003898 0.8871263
v 0.2630509 0.9315593 0.8414416
v 0.2559519 0.9563391 0.7957571
v 0.2945718 1.031293 0.1197131
v -0.3291963 0.694 0.06987455
v -0.312571 1.031293 0.1197134
v -0.2739504 0.9563391 0.7957574
v -0.2810493 0.9315593 0.8414419
v -0.2881483 0.8003898 0.8871266
v -0.008999784 1.218678 -0.2262971
v -0.008999611 1.218678 0.1140631
v -0.09185263 1.218678 0.1140632
v -0.1747057 1.218678 0.1140632
v -0.1674757 1.218678 -0.3552605
v 0.1567064 1.218678 0.114063
v 0.07385341 1.218678 0.1140631
v -0.008999611 1.218678 0.1140631
v -0.008999784 1.218678 -0.2262971
v 0.149476 1.218678 -0.3552606
v 0.3224125 1.218678 0.114063
v 0.3163873 1.218678 -0.1012973
v 0.2945718 1.031293 0.1197131
v 0.2807541 1.218678 0.5299008
v 0.3015834 1.218678 0.3219819
v -0.3404118 1.218678 0.1140633
v -0.3195824 1.218678 0.3219822
v -0.298753 1.218678 0.5299011
v -0.312571 1.031293 0.1197134
v -0.3343867 1.218678 -0.1012969
v -0.3343867 1.218678 -0.1012969
v -0.3283617 1.218678 -0.3166571
v -0.1674757 1.218678 -0.3552605
v -0.1747057 1.218678 0.1140632
v -0.2575587 1.218678 0.1140633
v -0.3404118 1.218678 0.1140633
v 0.3224125 1.218678 0.114063
v 0.2395595 1.218678 0.114063
v 0.1567064 1.218678 0.114063
v 0.149476 1.218678 -0.3552606
v 0.310362 1.218678 -0.3166575
v 0.3163873 1.218678 -0.1012973
v -0.008999181 1.548226 0.964122
v 0.05723862 1.526083 0.9585129
v 0.1234764 1.241139 1.021347
v -0.008999094 1.205722 1.13459
v -0.1414747 1.241139 1.021347
v -0.07523696 1.526083 0.958513
v 0.1234764 1.241139 1.021347
v 0.1897141 1.21869 0.8532799
v 0.2559519 1.218678 0.7957571
v 0.2559519 1.087509 0.7957571
v -0.008999094 1.205722 1.13459
v -0.1414747 1.241139 1.021347
v -0.008999094 1.205722 1.13459
v -0.2739504 1.087509 0.7957574
v -0.2739504 1.218678 0.7957574
v -0.2077126 1.21869 0.8532801
v 0.3224125 1.218678 0.114063
v 0.3015834 1.218678 0.3219819
v 0.1601862 1.349563 0.7429677
v 0.2395595 1.218678 0.114063
v 0.3015834 1.218678 0.3219819
v 0.2807541 1.218678 0.5299008
v 0.268353 1.218678 0.6628289
v 0.1601862 1.349563 0.7429677
v 0.268353 1.218678 0.6628289
v 0.2559519 1.218678 0.7957571
v 0.1897141 1.21869 0.8532799
v 0.1601862 1.349563 0.7429677
v 0.1897141 1.21869 0.8532799
v 0.1234764 1.241139 1.021347
v 0.05723862 1.526083 0.9585129
v 0.1601862 1.349563 0.7429677
v 0.05723862 1.526083 0.9585129
v -0.008999181 1.548226 0.964122
v -0.008999278 1.349569 0.7732233
v 0.1601862 1.349563 0.7429677
v -0.008999278 1.349569 0.7732233
v -0.008999611 1.218678 0.1140631
v 0.07385341 1.218678 0.1140631
v 0.1601862 1.349563 0.7429677
v 0.07385341 1.218678 0.1140631
v 0.1567064 1.218678 0.114063
v 0.2395595 1.218678 0.114063
v 0.1601862 1.349563 0.7429677
v -0.2739504 1.218678 0.7957574
v -0.2863517 1.218678 0.6628292
v -0.1781848 1.349563 0.7429678
v -0.2077126 1.21869 0.8532801
v -0.2863517 1.218678 0.6628292
v -0.298753 1.218678 0.5299011
v -0.3195824 1.218678 0.3219822
v -0.1781848 1.349563 0.7429678
v -0.3195824 1.218678 0.3219822
v -0.3404118 1.218678 0.1140633
v -0.2575587 1.218678 0.1140633
v -0.1781848 1.349563 0.7429678
v -0.2575587 1.218678 0.1140633
v -0.1747057 1.218678 0.1140632
v -0.09185263 1.218678 0.1140632
v -0.1781848 1.349563 0.7429678
v -0.09185263 1.218678 0.1140632
v -0.008999611 1.218678 0.1140631
v -0.008999278 1.349569 0.7732233
v -0.1781848 1.349563 0.7429678
v -0.008999278 1.349569 0.7732233
v -0.008999181 1.548226 0.964122
v -0.07523696 1.526083 0.958513
v -0.1781848 1.349563 0.7429678
v -0.07523696 1.526083 0.958513
v -0.1414747 1.241139 1.021347
v -0.2077126 1.21869 0.8532801
v -0.1781848 1.349563 0.7429678
v 0.2807541 1.218678 0.5299008
v 0.2945718 1.031293 0.1197131
v 0.2559519 0.9563391 0.7957571
v 0.2559519 1.087509 0.7957571
v 0.2559519 1.218678 0.7957571
v 0.268353 1.218678 0.6628289
v -0.298753 1.218678 0.5299011
v -0.2863517 1.218678 0.6628292
v -0.2739504 1.218678 0.7957574
v -0.2739504 1.087509 0.7957574
v -0.2739504 0.9563391 0.7957574
v -0.312571 1.031293 0.1197134

vn -4.474099E-07 0.350733 -0.9364755
vn 0.524841 0.298544 -0.7971282
vn 0.524841 0.298544 -0.7971282
vn -4.609327E-07 0.3507331 -0.9364755
vn -0.5248418 0.298544 -0.7971277
vn -0.5248418 0.298544 -0.7971278
vn 0 1 0
vn 0 1 0
vn 0 1 0
vn 0 1 0
vn 0 1 0
vn 0 1 0
vn 0 1 0
vn 0 1 0
vn 0 1 0
vn 0 1 0
vn 0 1 0
vn 0 1 0
vn 0 1 0
vn 0 1 0
vn 0 1 0
vn 0 1 0
vn -5.066394E-07 0 -1
vn -5.066394E-07 0 -1
vn -5.066394E-07 0 -1
vn -5.066394E-07 0 -1
vn -5.066394E-07 0 -1
vn -5.066394E-07 0 -1
vn -5.066394E-07 0 -1
vn -5.066394E-07 0 -1
vn -5.066394E-07 0 -1
vn -5.066394E-07 0 -1
vn -0.1450902 -0.05515298 -0.98788
vn -0.2813611 0.05784327 -0.9578571
vn -0.03801853 -0.06958655 -0.9968511
vn -5.066394E-07 0 -1
vn -0.01702593 -0.0723138 -0.9972366
vn -0.025819 -0.1348653 -0.9905275
vn 0.025818 -0.1348653 -0.9905275
vn 0.01702492 -0.07231381 -0.9972367
vn -5.066394E-07 0 -1
vn 0.03801752 -0.06958655 -0.9968511
vn 0.28136 0.05784315 -0.9578573
vn 0.1450892 -0.05515302 -0.9878802
vn 0.9886422 -0.1477212 -0.0276599
vn 0.9886423 -0.1477209 -0.02765976
vn 0.9886422 -0.1477212 -0.0276599
vn 0.9886421 -0.1477215 -0.02766003
vn 0.9933165 0.111859 0.02845762
vn 0.9791471 0.2012968 -0.02739411
vn 0.9933165 0.111859 0.02845762
vn 0.9949744 0.09128048 0.04115258
vn 0.9931279 0.1020857 0.05723078
vn 5.066394E-07 0 0.9999999
vn 0.9931279 0.1020857 0.05723078
vn 0.9938881 0.1021639 0.04181971
vn 0.9977954 0 0.06636582
vn 0.9980549 0.02958153 0.05487605
vn 0.997869 0.04177922 0.05011886
vn 0.9980549 0.02958153 0.05487605
vn -0.997869 0.04177944 0.05011985
vn -0.9980549 0.02958169 0.05487707
vn -0.9977953 0 0.0663669
vn -0.9980549 0.02958169 0.05487707
vn -0.9931279 0.1020857 0.05723186
vn 5.066394E-07 0 1
vn -0.9931279 0.1020857 0.05723186
vn -0.9938881 0.1021638 0.0418208
vn -0.9933165 0.111859 0.02845867
vn -0.979147 0.2012971 -0.02739325
vn -0.9933165 0.111859 0.02845867
vn -0.9949744 0.09128045 0.04115367
vn -0.9886421 -0.1477214 -0.02765882
vn -0.9886421 -0.1477214 -0.02765882
vn -0.9886421 -0.1477214 -0.02765882
vn -0.9886421 -0.1477214 -0.02765882
vn 0 1 0
vn 0 1 0
vn 0 1 0
vn 0 1 0
vn 0 1 0
vn 0 1 0
vn 0 1 0
vn 0 1 0
vn 0 1 0
vn 0 1 0
vn 0.7877561 0 0.6159872
vn 0.8362103 0.1888888 0.5148528
vn 0.7914841 0.580321 0.1917823
vn 0.8362103 0.1888888 0.5148528
vn 0.3093669 -0.3311681 0.8914145
vn 4.784508E-07 0.3289092 0.9443616
vn 0.3093669 -0.3311681 0.8914145
vn 0.3670312 -0.4847154 0.7939389
vn 4.3242E-07 -0.5210825 0.8535064
vn -0.309366 -0.3311681 0.8914148
vn -0.8113636 0.2309375 0.5369886
vn -0.309366 -0.3311681 0.8914148
vn -0.7914839 0.5803208 0.1917833
vn -0.8362098 0.1888887 0.5148537
vn -0.7877555 0 0.6159881
vn -0.8362098 0.1888887 0.5148537
vn 0 -1 0
vn 3.150685E-08 -0.9980645 0.06218792
vn 6.540239E-08 -0.9916328 0.1290906
vn 6.540238E-08 -0.9916328 0.1290906
vn 6.54024E-08 -0.9916328 0.1290906
vn 3.150685E-08 -0.9980645 0.06218792
vn 0 -1 0
vn 0 -1 0
vn 0.9966269 0.06577226 0.04908026
vn 0.9968154 0.06828946 0.04117595
vn 0.9937915 0.1074304 0.02893607
vn 0.9965252 0.06469347 0.05246241
vn 0.9973071 0.04008216 0.06141661
vn -0.9966269 0.06577235 0.04908126
vn -0.9973069 0.04008238 0.06141756
vn -0.9965252 0.06469364 0.05246338
vn -0.9937914 0.1074303 0.02893716
vn -0.9968154 0.06828938 0.04117704
vn 0 1 0
vn 0 0.9999999 0
vn 0 1 0
vn 0 0.9999999 0
vn 0 1 0
vn 0 1 0
vn 0 0.9999999 0
vn 0 0.9999999 0
vn 0 1 0
vn 0 1 0
vn 0.9887018 -0.1458534 0.0345792
vn 0.9886422 -0.1477212 -0.02765976
vn 0.987846 -0.1450875 0.05576703
vn 0.9847453 -0.143334 0.0986513
vn 0.9847453 -0.1433338 0.09865115
vn -0.9887016 -0.1458537 0.03458016
vn -0.9847452 -0.143334 0.09865209
vn -0.9847451 -0.143334 0.0986521
vn -0.9878459 -0.1450877 0.05576793
vn -0.9886421 -0.1477215 -0.02765889
vn 0 1 0
vn 0 0.9999999 0
vn 0 1 0
vn 0 1 0
vn 0 1 0
vn 0 1 0
vn 0 1 0
vn 0 1 0
vn 0 1 0
vn 0 1 0
vn 0 1 0
vn 0 1 0
vn 4.719421E-07 0.4455741 0.8952451
vn 0.4631597 0.351423 0.8136246
vn 0.571795 0.3011957 0.7631065
vn 4.651089E-07 0.3965169 0.9180275
vn -0.5717943 0.3011958 0.7631071
vn -0.4631589 0.3514231 0.813625
vn 0.8123869 -0.1331175 0.5677211
vn 0.8505796 0.2200655 0.477583
vn 0.6556901 0 0.7550302
vn 0.7902828 -0.1112966 0.6025499
vn 0.65698 -0.385153 0.6481006
vn -0.8123862 -0.1331176 0.5677221
vn -0.6569793 -0.3851531 0.6481014
vn -0.7902821 -0.1112967 0.6025507
vn -0.6556895 0 0.7550307
vn -0.8505792 0.2200654 0.4775839
vn 0.3485146 0.9315197 -0.1039647
vn 0.7943665 0.6022035 0.079579
vn 0.3485146 0.9315197 -0.1039647
vn -1.03228E-07 0.9790229 -0.2037504
vn 0.7943668 0.602203 0.07957929
vn 0.792838 0.6045107 0.07729655
vn 0.7904381 0.6080869 0.07374168
vn 0.792838 0.6045107 0.07729655
vn 0.7904382 0.6080869 0.07374169
vn 0.7111735 0.6387691 0.2936091
vn 0.5159983 0.617137 0.5940434
vn 0.7111735 0.6387691 0.2936091
vn 0.8579986 0.4301759 0.2806902
vn 0.9183081 0.3126193 0.2428569
vn 0.9361516 0.2678444 0.2277708
vn 0.9183081 0.3126193 0.2428569
vn -0.03533385 0.7298709 -0.6826714
vn 0.1681424 0.683022 -0.7107806
vn -0.03533385 0.7298709 -0.6826714
vn -0.1184308 0.7397504 -0.6623771
vn -0.02369774 0.9800004 -0.1975788
vn -9.867751E-08 0.9808492 -0.1947687
vn -0.02369774 0.9800004 -0.1975788
vn -0.03554671 0.9793663 -0.1989422
vn -1.03228E-07 0.9790228 -0.2037504
vn 0 0 0
vn -1.03228E-07 0.9790228 -0.2037504
vn -1.03228E-07 0.9790228 -0.2037504
vn -0.0002007341 0.9999999 1.872716E-05
vn -0.7111733 0.638769 0.2936097
vn -0.8166282 0.468443 0.3371641
vn -0.7111733 0.638769 0.2936097
vn -0.7904381 0.6080869 0.07374262
vn -0.7928379 0.6045108 0.07729727
vn -0.7943666 0.6022032 0.07957987
vn -0.7928379 0.6045108 0.07729727
vn -0.7943664 0.6022034 0.0795799
vn -0.3485149 0.9315197 -0.1039644
vn -1.03228E-07 0.9790229 -0.2037505
vn -0.3485149 0.9315197 -0.1039644
vn -1.03228E-07 0.9790228 -0.2037505
vn -1.03228E-07 0.9790228 -0.2037505
vn -1.03228E-07 0.9790228 -0.2037505
vn -1.03228E-07 0.9790228 -0.2037505
vn -1.03228E-07 0.9790229 -0.2037505
vn 0.02369776 0.9800004 -0.1975789
vn 0.03477939 0.9802558 -0.1946509
vn 0.02369776 0.9800004 -0.1975789
vn 0.0353333 0.7298709 -0.6826712
vn -0.1681432 0.683022 -0.7107805
vn 0.0353333 0.7298709 -0.6826712
vn 0.1184304 0.7397504 -0.6623773
vn -0.9361514 0.2678445 0.2277718
vn -0.9183078 0.3126195 0.2428578
vn -0.8579983 0.4301761 0.2806911
vn -0.9183078 0.3126195 0.2428578
vn 0.9976408 -0.03372238 0.05979583
vn 0.9977743 -0.04119792 0.05243165
vn 0.9975623 -0.03091646 0.06255732
vn 0.9956766 0 0.09288883
vn 0.9956766 0 0.09288883
vn 0.9956766 0 0.09288883
vn -0.9976407 -0.03372256 0.05979678
vn -0.9956765 0 0.09288996
vn -0.9956765 0 0.09288996
vn -0.9956765 0 0.09288996
vn -0.9975622 -0.03091663 0.06255828
vn -0.9977743 -0.04119815 0.05243255

vt -0.5 0.5246797
vt -0.4231721 0.5246873
vt -0.3463442 0.5246949
vt -0.5 0.3148202
vt -0.6536558 0.5246949
vt -0.5768279 0.5246873
vt 0.5 -0.0375871
vt 0.5 -0.4782623
vt 0.3415241 -0.3498245
vt 0.4231721 0.01279139
vt 0.2695163 0.0631699
vt 0.3463442 0.0631699
vt 0.4231721 0.01279139
vt 0.3415241 -0.3498245
vt 0.5 -0.4782623
vt 0.5 -0.0375871
vt 0.5768279 0.01279139
vt 0.6584759 -0.3498245
vt 0.5768279 0.01279139
vt 0.6536558 0.0631699
vt 0.7304837 0.0631699
vt 0.6584759 -0.3498245
vt -0.1387557 0.2623524
vt -0.1387557 0.1311828
vt -0.1387557 1.327756E-05
vt -0.5 1.327756E-05
vt -0.5 0.3148202
vt -0.5 1.327756E-05
vt -0.8612443 1.327756E-05
vt -0.8612443 0.1311828
vt -0.8612443 0.2623524
vt -0.5 0.3148202
vt -0.2695163 0.5246949
vt -0.1926885 0.5246915
vt -0.1657221 0.393522
vt -0.1387557 0.2623524
vt -0.5 0.3148202
vt -0.3463442 0.5246949
vt -0.6536558 0.5246949
vt -0.5 0.3148202
vt -0.8612443 0.2623524
vt -0.8342779 0.393522
vt -0.8073115 0.5246915
vt -0.7304837 0.5246949
vt -0.3056189 0.4968582
vt -0.09073874 0.4973728
vt -0.7422602 0.3094563
vt -0.5204991 0.4963436
vt -0.09073874 0.4973728
vt 0.1241414 0.4978874
vt 0.125339 0.3658997
vt -0.7422602 0.3094563
vt 0.125339 0.3658997
vt 0.1265365 0.2339121
vt 0.1265365 0.1028141
vt -0.7422602 0.3094563
vt 0.1265365 0.1028141
vt 0.1265365 -0.02828394
vt -0.6917322 -0.02812825
vt -0.7422602 0.3094563
vt -0.7361403 0.004863033
vt 0.08212841 0.00470734
vt 0.08212841 0.1358054
vt -0.7866682 0.3424476
vt 0.08212841 0.1358054
vt 0.08212841 0.2669034
vt 0.08093089 0.398891
vt -0.7866682 0.3424476
vt 0.08093089 0.398891
vt 0.07973336 0.5308787
vt -0.1351468 0.5303641
vt -0.7866682 0.3424476
vt -0.1351468 0.5303641
vt -0.350027 0.5298495
vt -0.5649072 0.5293349
vt -0.7866682 0.3424476
vt 0.1926885 0.04069449
vt 0.2695163 0.0631699
vt 0.3415241 -0.3498245
vt 0.1806382 -0.3882704
vt 0.1866633 -0.173788
vt 0.8073115 0.04069449
vt 0.8133367 -0.173788
vt 0.8193618 -0.3882704
vt 0.6584759 -0.3498245
vt 0.7304837 0.0631699
vt -0.7649511 0.7614905
vt -0.7649511 0.6349183
vt -0.7720501 0.6229961
vt -0.5 0.9644811
vt -0.7720501 0.6229961
vt -0.7791491 0.5084131
vt -0.5 0.5084131
vt -0.5 0.9644811
vt -0.5 0.5084131
vt -0.220851 0.5084131
vt -0.2279499 0.6229961
vt -0.5 0.9644811
vt -0.2279499 0.6229961
vt -0.2350489 0.6349183
vt -0.2350489 0.7614905
vt -0.5 0.9644811
vt -0.1387557 0.08819085
vt -0.1798034 -0.7273355
vt -0.220851 -1.549772
vt -0.5 -1.549772
vt -0.7791491 -1.549772
vt -0.8201966 -0.7273355
vt -0.8612443 0.08819085
vt -0.5 0.08819085
vt -0.6917322 -0.02812825
vt -1.510001 0.07835917
vt -1.464676 0.2097584
vt -1.419352 0.2348259
vt -0.7422602 0.3094563
vt -0.7361403 0.004863033
vt -0.7866682 0.3424476
vt -1.46376 0.2678171
vt -1.509085 0.2427497
vt -1.554409 0.1113505
vt 0.5 -0.4782623
vt 0.5 -0.8172353
vt 0.417147 -0.8172353
vt 0.3342939 -0.8172353
vt 0.3415241 -0.3498245
vt 0.665706 -0.8172353
vt 0.582853 -0.8172353
vt 0.5 -0.8172353
vt 0.5 -0.4782623
vt 0.6584759 -0.3498245
vt -0.7353793 0.495829
vt -0.5204991 0.4963436
vt -0.7422602 0.3094563
vt -1.152657 0.4965935
vt -0.9440181 0.4962112
vt -0.7797874 0.5288203
vt -0.9884262 0.5292025
vt -1.197065 0.5295848
vt -0.7866682 0.3424476
vt -0.5649072 0.5293349
vt 0.174613 -0.6027529
vt 0.1806382 -0.3882704
vt 0.3415241 -0.3498245
vt 0.3342939 -0.8172353
vt 0.2514409 -0.8172353
vt 0.1685879 -0.8172353
vt 0.8314121 -0.8172353
vt 0.7485591 -0.8172353
vt 0.665706 -0.8172353
vt 0.6584759 -0.3498245
vt 0.8193618 -0.3882704
vt 0.825387 -0.6027529
vt -0.5 1.250244
vt -0.5662378 1.227405
vt -0.6324756 0.9689385
vt -0.5 0.9644811
vt -0.3675244 0.9689385
vt -0.4337622 1.227405
vt -0.6324756 0.9689385
vt -0.6987133 0.9031702
vt -0.7649511 0.8880627
vt -0.7649511 0.7614905
vt -0.5 0.9644811
vt -0.3675244 0.9689385
vt -0.5 0.9644811
vt -0.2350489 0.7614905
vt -0.2350489 0.8880627
vt -0.3012867 0.9031702
vt 0.8314121 -0.8172353
vt 0.8105829 -1.024307
vt 0.6691855 -1.455382
vt 0.7485591 -0.8172353
vt 0.8105829 -1.024307
vt 0.7897536 -1.231378
vt 0.7773523 -1.363765
vt 0.6691855 -1.455382
vt 0.7773523 -1.363765
vt 0.7649511 -1.496151
vt 0.6987133 -1.55344
vt 0.6691855 -1.455382
vt 0.6987133 -1.55344
vt 0.6324756 -1.722847
vt 0.5662378 -1.685969
vt 0.6691855 -1.455382
vt 0.5662378 -1.685969
vt 0.5 -1.693553
vt 0.5 -1.485514
vt 0.6691855 -1.455382
vt 0.5 -1.485514
vt 0.5 -0.8172353
vt 0.582853 -0.8172353
vt 0.6691855 -1.455382
vt 0.582853 -0.8172353
vt 0.665706 -0.8172353
vt 0.7485591 -0.8172353
vt 0.6691855 -1.455382
vt 0.2350489 -1.496151
vt 0.2226477 -1.363765
vt 0.3308145 -1.455382
vt 0.3012867 -1.55344
vt 0.2226477 -1.363765
vt 0.2102464 -1.231378
vt 0.1894171 -1.024307
vt 0.3308145 -1.455382
vt 0.1894171 -1.024307
vt 0.1685879 -0.8172353
vt 0.2514409 -0.8172353
vt 0.3308145 -1.455382
vt 0.2514409 -0.8172353
vt 0.3342939 -0.8172353
vt 0.417147 -0.8172353
vt 0.3308145 -1.455382
vt 0.417147 -0.8172353
vt 0.5 -0.8172353
vt 0.5 -1.485514
vt 0.3308145 -1.455382
vt 0.5 -1.485514
vt 0.5 -1.693553
vt 0.4337622 -1.685969
vt 0.3308145 -1.455382
vt 0.4337622 -1.685969
vt 0.3675244 -1.722847
vt 0.3012867 -1.55344
vt 0.3308145 -1.455382
vt -1.152657 0.4965935
vt -0.7422602 0.3094563
vt -1.419352 0.2348259
vt -1.419352 0.3659239
vt -1.419352 0.4970219
vt -1.286005 0.4968077
vt -1.197065 0.5295848
vt -1.330413 0.529799
vt -1.46376 0.5300132
vt -1.46376 0.3989152
vt -1.46376 0.2678171
vt -0.7866682 0.3424476

g Cube_0
usemtl Default_Prototype
f 10/10/10 9/9/9 8/8/8 7/7/7
f 12/12/12 11/11/11 14/14/14 13/13/13
f 17/17/17 16/16/16 15/15/15 18/18/18
f 21/21/21 20/20/20 19/19/19 22/22/22
f 48/48/48 47/47/47 46/46/46 45/45/45
f 52/52/52 51/51/51 50/50/50 49/49/49
f 54/54/54 53/53/53 56/56/56 55/55/55
f 59/59/59 58/58/58 57/57/57 60/60/60
f 63/63/63 62/62/62 61/61/61 64/64/64
f 66/66/66 65/65/65 68/68/68 67/67/67
f 70/70/70 69/69/69 72/72/72 71/71/71
f 73/73/73 76/76/76 75/75/75 74/74/74
f 87/87/87 90/90/90 89/89/89 88/88/88
f 94/94/94 93/93/93 92/92/92 91/91/91
f 97/97/97 96/96/96 95/95/95 98/98/98
f 99/99/99 102/102/102 101/101/101 100/100/100
f 172/172/172 171/171/171 170/170/170 169/169/169
f 173/173/173 176/176/176 175/175/175 174/174/174
f 177/177/177 180/180/180 179/179/179 178/178/178
f 181/181/181 184/184/184 183/183/183 182/182/182
f 188/188/188 187/187/187 186/186/186 185/185/185
f 190/190/190 189/189/189 192/192/192 191/191/191
f 194/194/194 193/193/193 196/196/196 195/195/195
f 199/199/199 198/198/198 197/197/197 200/200/200
f 203/203/203 202/202/202 201/201/201 204/204/204
f 207/207/207 206/206/206 205/205/205 208/208/208
f 209/209/209 212/212/212 211/211/211 210/210/210
f 213/213/213 216/216/216 215/215/215 214/214/214
f 220/220/220 219/219/219 218/218/218 217/217/217
f 221/221/221 224/224/224 223/223/223 222/222/222

g Cube_1
usemtl Default_Prototype
f 3/3/3 2/2/2 4/4/4
f 2/2/2 1/1/1 4/4/4
f 6/6/6 4/4/4 1/1/1
f 6/6/6 5/5/5 4/4/4
f 26/26/26 25/25/25 24/24/24
f 27/27/27 26/26/26 24/24/24
f 23/23/23 27/27/27 24/24/24
f 30/30/30 29/29/29 28/28/28
f 32/32/32 30/30/30 28/28/28
f 32/32/32 31/31/31 30/30/30
f 34/34/34 33/33/33 35/35/35
f 35/35/35 33/33/33 38/38/38
f 35/35/35 37/37/37 36/36/36
f 35/35/35 38/38/38 37/37/37
f 42/42/42 44/44/44 43/43/43
f 39/39/39 44/44/44 42/42/42
f 40/40/40 39/39/39 42/42/42
f 42/42/42 41/41/41 40/40/40
f 78/78/78 77/77/77 81/81/81
f 79/79/79 78/78/78 81/81/81
f 81/81/81 80/80/80 79/79/79
f 82/82/82 86/86/86 83/83/83
f 83/83/83 85/85/85 84/84/84
f 83/83/83 86/86/86 85/85/85
f 110/110/110 104/104/104 103/103/103
f 108/108/108 104/104/104 110/110/110
f 106/106/106 104/104/104 108/108/108
f 106/106/106 105/105/105 104/104/104
f 108/108/108 107/107/107 106/106/106
f 109/109/109 108/108/108 110/110/110
f 115/115/115 114/114/114 111/111/111
f 114/114/114 113/113/113 111/111/111
f 113/113/113 112/112/112 111/111/111
f 116/116/116 120/120/120 119/119/119
f 116/116/116 119/119/119 118/118/118
f 116/116/116 118/118/118 117/117/117
f 123/123/123 122/122/122 121/121/121
f 121/121/121 124/124/124 123/123/123
f 121/121/121 125/125/125 124/124/124
f 129/129/129 128/128/128 127/127/127
f 126/126/126 129/129/129 127/127/127
f 130/130/130 129/129/129 126/126/126
f 131/131/131 133/133/133 132/132/132
f 135/135/135 133/133/133 131/131/131
f 135/135/135 134/134/134 133/133/133
f 139/139/139 138/138/138 137/137/137
f 136/136/136 139/139/139 137/137/137
f 140/140/140 139/139/139 136/136/136
f 143/143/143 142/142/142 144/144/144
f 144/144/144 142/142/142 141/141/141
f 144/144/144 141/141/141 145/145/145
f 141/141/141 146/146/146 145/145/145
f 152/152/152 148/148/148 147/147/147
f 152/152/152 149/149/149 148/148/148
f 152/152/152 150/150/150 149/149/149
f 151/151/151 150/150/150 152/152/152
f 156/156/156 155/155/155 154/154/154
f 154/154/154 153/153/153 156/156/156
f 156/156/156 153/153/153 158/158/158
f 156/156/156 158/158/158 157/157/157
f 162/162/162 161/161/161 160/160/160
f 160/160/160 159/159/159 162/162/162
f 162/162/162 159/159/159 163/163/163
f 165/165/165 164/164/164 166/166/166
f 166/166/166 164/164/164 168/168/168
f 166/166/166 168/168/168 167/167/167
f 226/226/226 225/225/225 227/227/227
f 230/230/230 227/227/227 225/225/225
f 230/230/230 228/228/228 227/227/227
f 230/230/230 229/229/229 228/228/228
f 234/234/234 233/233/233 232/232/232
f 235/235/235 234/234/234 232/232/232
f 231/231/231 235/235/235 232/232/232
f 235/235/235 231/231/231 236/236/236

